<?xml version="1.0" standalone="no"?>
<!DOCTYPE svg PUBLIC "-//W3C//DTD SVG 20010904//EN"
 "http://www.w3.org/TR/2001/REC-SVG-20010904/DTD/svg10.dtd">
<svg version="1.0" xmlns="http://www.w3.org/2000/svg"
 width="512.000000pt" height="512.000000pt" viewBox="0 0 512.000000 512.000000"
 preserveAspectRatio="xMidYMid meet">
<metadata>
Created by potrace 1.14, written by Peter Selinger 2001-2017
</metadata>
<g transform="translate(0.000000,512.000000) scale(0.100000,-0.100000)"
fill="#000000" stroke="none">
<path d="M2989 4666 c-2 -2 -22 -6 -44 -9 -22 -3 -67 -15 -100 -27 -59 -21
-339 -89 -475 -116 -14 -3 -33 -7 -42 -10 -9 -3 -25 -7 -35 -9 -54 -11 -623
-140 -711 -160 -117 -28 -123 -29 -229 -45 -242 -36 -416 -224 -429 -463 -5
-97 9 -163 51 -249 l34 -68 -392 -1 c-216 0 -400 -2 -410 -4 -44 -8 -107 -47
-140 -86 -71 -83 -67 11 -67 -1439 0 -1479 -6 -1376 78 -1459 90 -89 -99 -82
2017 -79 1815 3 1871 4 1908 22 55 27 122 100 138 149 9 29 14 111 15 267 1
124 3 229 3 233 1 11 39 -10 471 -263 383 -223 398 -229 453 -180 l32 28 3
1272 2 1272 -35 35 c-54 54 -71 48 -370 -127 -143 -84 -280 -163 -305 -177
-25 -14 -90 -51 -145 -83 -55 -32 -101 -57 -103 -55 -3 2 -5 111 -6 242 -2
234 -3 239 -28 288 -28 55 -52 79 -113 116 -38 23 -49 24 -247 27 l-207 4 46
56 c53 65 104 168 127 259 17 66 23 200 11 272 -35 226 -207 438 -424 524 -67
27 -175 47 -255 47 -40 0 -75 -2 -77 -4z m-545 -418 c-42 -106 -45 -122 -50
-243 -6 -163 41 -307 143 -437 l44 -58 -380 0 c-212 0 -381 4 -381 9 0 5 7 14
15 21 8 7 15 19 15 27 0 7 6 24 14 36 27 41 44 134 41 219 -4 101 -37 191
-102 280 -24 33 -43 61 -41 63 2 2 86 21 308 70 15 3 347 79 385 88 11 3 20 5
21 6 1 0 -14 -36 -32 -81z"/>
</g>
</svg>
